<mxfile host="app.diagrams.net" agent="Mozilla/5.0 (Windows NT 10.0; Win64; x64) AppleWebKit/537.36 (KHTML, like Gecko) Chrome/129.0.0.0 Safari/537.36 Edg/129.0.0.0" version="24.7.17">
  <diagram name="第 1 页" id="tpsooIyvrURV_wEJSYzE">
    <mxGraphModel dx="604" dy="-825" grid="1" gridSize="10" guides="1" tooltips="1" connect="1" arrows="1" fold="1" page="1" pageScale="1" pageWidth="827" pageHeight="1169" math="0" shadow="0">
      <root>
        <mxCell id="0" />
        <mxCell id="1" parent="0" />
        <mxCell id="56w3MjeFzbU22NMbsZlD-2" value="&lt;b&gt;JO&lt;/b&gt;&lt;div&gt;&lt;b&gt;01&lt;/b&gt;&lt;/div&gt;" style="rounded=1;whiteSpace=wrap;html=1;strokeWidth=2;strokeColor=#1069B4;" vertex="1" parent="1">
          <mxGeometry x="240" y="2280" width="30" height="30" as="geometry" />
        </mxCell>
        <mxCell id="56w3MjeFzbU22NMbsZlD-3" value="久里浜" style="rounded=0;whiteSpace=wrap;html=1;" vertex="1" parent="1">
          <mxGeometry x="280" y="2280" width="120" height="30" as="geometry" />
        </mxCell>
        <mxCell id="56w3MjeFzbU22NMbsZlD-5" value="&lt;b&gt;JO&lt;/b&gt;&lt;div&gt;&lt;b&gt;02&lt;/b&gt;&lt;/div&gt;" style="rounded=1;whiteSpace=wrap;html=1;strokeWidth=2;strokeColor=#1069B4;" vertex="1" parent="1">
          <mxGeometry x="240" y="2240" width="30" height="30" as="geometry" />
        </mxCell>
        <mxCell id="56w3MjeFzbU22NMbsZlD-6" value="衣笠" style="rounded=0;whiteSpace=wrap;html=1;" vertex="1" parent="1">
          <mxGeometry x="280" y="2240" width="120" height="30" as="geometry" />
        </mxCell>
        <mxCell id="56w3MjeFzbU22NMbsZlD-7" value="横須賀" style="rounded=0;whiteSpace=wrap;html=1;" vertex="1" parent="1">
          <mxGeometry x="280" y="2200" width="120" height="30" as="geometry" />
        </mxCell>
        <mxCell id="56w3MjeFzbU22NMbsZlD-8" value="&lt;b&gt;JO&lt;/b&gt;&lt;div&gt;&lt;b&gt;03&lt;/b&gt;&lt;/div&gt;" style="rounded=1;whiteSpace=wrap;html=1;strokeWidth=2;strokeColor=#1069B4;" vertex="1" parent="1">
          <mxGeometry x="240" y="2200" width="30" height="30" as="geometry" />
        </mxCell>
        <mxCell id="56w3MjeFzbU22NMbsZlD-9" value="田浦" style="rounded=0;whiteSpace=wrap;html=1;" vertex="1" parent="1">
          <mxGeometry x="280" y="2160" width="120" height="30" as="geometry" />
        </mxCell>
        <mxCell id="56w3MjeFzbU22NMbsZlD-10" value="東逗子" style="rounded=0;whiteSpace=wrap;html=1;" vertex="1" parent="1">
          <mxGeometry x="280" y="2120" width="120" height="30" as="geometry" />
        </mxCell>
        <mxCell id="56w3MjeFzbU22NMbsZlD-11" value="&lt;b&gt;JO&lt;/b&gt;&lt;div&gt;&lt;b&gt;04&lt;/b&gt;&lt;/div&gt;" style="rounded=1;whiteSpace=wrap;html=1;strokeWidth=2;strokeColor=#1069B4;" vertex="1" parent="1">
          <mxGeometry x="240" y="2160" width="30" height="30" as="geometry" />
        </mxCell>
        <mxCell id="56w3MjeFzbU22NMbsZlD-12" value="&lt;b&gt;JO&lt;/b&gt;&lt;div&gt;&lt;b&gt;05&lt;/b&gt;&lt;/div&gt;" style="rounded=1;whiteSpace=wrap;html=1;strokeWidth=2;strokeColor=#1069B4;" vertex="1" parent="1">
          <mxGeometry x="240" y="2120" width="30" height="30" as="geometry" />
        </mxCell>
        <mxCell id="56w3MjeFzbU22NMbsZlD-13" value="逗子" style="rounded=0;whiteSpace=wrap;html=1;" vertex="1" parent="1">
          <mxGeometry x="280" y="2080" width="120" height="30" as="geometry" />
        </mxCell>
        <mxCell id="56w3MjeFzbU22NMbsZlD-14" value="&lt;b&gt;JO&lt;/b&gt;&lt;div&gt;&lt;b&gt;06&lt;/b&gt;&lt;/div&gt;" style="rounded=1;whiteSpace=wrap;html=1;strokeWidth=2;strokeColor=#1069B4;" vertex="1" parent="1">
          <mxGeometry x="240" y="2080" width="30" height="30" as="geometry" />
        </mxCell>
        <mxCell id="56w3MjeFzbU22NMbsZlD-15" value="鎌倉" style="rounded=0;whiteSpace=wrap;html=1;" vertex="1" parent="1">
          <mxGeometry x="280" y="2040" width="120" height="30" as="geometry" />
        </mxCell>
        <mxCell id="56w3MjeFzbU22NMbsZlD-16" value="&lt;b&gt;JO&lt;/b&gt;&lt;div&gt;&lt;b&gt;07&lt;/b&gt;&lt;/div&gt;" style="rounded=1;whiteSpace=wrap;html=1;strokeWidth=2;strokeColor=#1069B4;" vertex="1" parent="1">
          <mxGeometry x="240" y="2040" width="30" height="30" as="geometry" />
        </mxCell>
        <mxCell id="56w3MjeFzbU22NMbsZlD-17" value="&lt;b&gt;JO&lt;/b&gt;&lt;div&gt;&lt;b&gt;08&lt;/b&gt;&lt;/div&gt;" style="rounded=1;whiteSpace=wrap;html=1;strokeWidth=2;strokeColor=#1069B4;" vertex="1" parent="1">
          <mxGeometry x="240" y="2000" width="30" height="30" as="geometry" />
        </mxCell>
        <mxCell id="56w3MjeFzbU22NMbsZlD-18" value="北鎌倉" style="rounded=0;whiteSpace=wrap;html=1;" vertex="1" parent="1">
          <mxGeometry x="280" y="2000" width="120" height="30" as="geometry" />
        </mxCell>
        <mxCell id="56w3MjeFzbU22NMbsZlD-19" value="&lt;b&gt;JO&lt;/b&gt;&lt;div&gt;&lt;b&gt;09&lt;/b&gt;&lt;/div&gt;" style="rounded=1;whiteSpace=wrap;html=1;strokeWidth=2;strokeColor=#1069B4;" vertex="1" parent="1">
          <mxGeometry x="240" y="1960" width="30" height="30" as="geometry" />
        </mxCell>
        <mxCell id="56w3MjeFzbU22NMbsZlD-20" value="大船" style="rounded=0;whiteSpace=wrap;html=1;" vertex="1" parent="1">
          <mxGeometry x="280" y="1960" width="120" height="30" as="geometry" />
        </mxCell>
        <mxCell id="56w3MjeFzbU22NMbsZlD-21" value="&lt;b&gt;JO&lt;/b&gt;&lt;div&gt;&lt;b&gt;10&lt;/b&gt;&lt;/div&gt;" style="rounded=1;whiteSpace=wrap;html=1;strokeWidth=2;strokeColor=#1069B4;" vertex="1" parent="1">
          <mxGeometry x="240" y="1920" width="30" height="30" as="geometry" />
        </mxCell>
        <mxCell id="56w3MjeFzbU22NMbsZlD-22" value="戸塚" style="rounded=0;whiteSpace=wrap;html=1;" vertex="1" parent="1">
          <mxGeometry x="280" y="1920" width="120" height="30" as="geometry" />
        </mxCell>
        <mxCell id="56w3MjeFzbU22NMbsZlD-23" value="東戸塚" style="rounded=0;whiteSpace=wrap;html=1;" vertex="1" parent="1">
          <mxGeometry x="280" y="1880" width="120" height="30" as="geometry" />
        </mxCell>
        <mxCell id="56w3MjeFzbU22NMbsZlD-24" value="保土ケ谷" style="rounded=0;whiteSpace=wrap;html=1;" vertex="1" parent="1">
          <mxGeometry x="280" y="1840" width="120" height="30" as="geometry" />
        </mxCell>
        <mxCell id="56w3MjeFzbU22NMbsZlD-25" value="横浜" style="rounded=0;whiteSpace=wrap;html=1;" vertex="1" parent="1">
          <mxGeometry x="280" y="1800" width="120" height="30" as="geometry" />
        </mxCell>
        <mxCell id="56w3MjeFzbU22NMbsZlD-26" value="新川崎" style="rounded=0;whiteSpace=wrap;html=1;" vertex="1" parent="1">
          <mxGeometry x="280" y="1760" width="120" height="30" as="geometry" />
        </mxCell>
        <mxCell id="56w3MjeFzbU22NMbsZlD-27" value="武蔵小杉" style="rounded=0;whiteSpace=wrap;html=1;" vertex="1" parent="1">
          <mxGeometry x="280" y="1720" width="120" height="30" as="geometry" />
        </mxCell>
        <mxCell id="56w3MjeFzbU22NMbsZlD-28" value="西大井" style="rounded=0;whiteSpace=wrap;html=1;" vertex="1" parent="1">
          <mxGeometry x="280" y="1680" width="120" height="30" as="geometry" />
        </mxCell>
        <mxCell id="56w3MjeFzbU22NMbsZlD-29" value="&amp;nbsp;品川" style="rounded=0;whiteSpace=wrap;html=1;" vertex="1" parent="1">
          <mxGeometry x="280" y="1640" width="120" height="30" as="geometry" />
        </mxCell>
        <mxCell id="56w3MjeFzbU22NMbsZlD-30" value="新橋" style="rounded=0;whiteSpace=wrap;html=1;" vertex="1" parent="1">
          <mxGeometry x="280" y="1600" width="120" height="30" as="geometry" />
        </mxCell>
        <mxCell id="56w3MjeFzbU22NMbsZlD-31" value="東京" style="rounded=0;whiteSpace=wrap;html=1;" vertex="1" parent="1">
          <mxGeometry x="280" y="1560" width="120" height="30" as="geometry" />
        </mxCell>
        <mxCell id="56w3MjeFzbU22NMbsZlD-32" value="&lt;b&gt;JO&lt;/b&gt;&lt;div&gt;&lt;b&gt;11&lt;/b&gt;&lt;/div&gt;" style="rounded=1;whiteSpace=wrap;html=1;strokeWidth=2;strokeColor=#1069B4;" vertex="1" parent="1">
          <mxGeometry x="240" y="1880" width="30" height="30" as="geometry" />
        </mxCell>
        <mxCell id="56w3MjeFzbU22NMbsZlD-33" value="&lt;b&gt;JO&lt;/b&gt;&lt;div&gt;&lt;b&gt;12&lt;/b&gt;&lt;/div&gt;" style="rounded=1;whiteSpace=wrap;html=1;strokeWidth=2;strokeColor=#1069B4;" vertex="1" parent="1">
          <mxGeometry x="240" y="1840" width="30" height="30" as="geometry" />
        </mxCell>
        <mxCell id="56w3MjeFzbU22NMbsZlD-34" value="&lt;b&gt;JO&lt;/b&gt;&lt;div&gt;&lt;b&gt;13&lt;/b&gt;&lt;/div&gt;" style="rounded=1;whiteSpace=wrap;html=1;strokeWidth=2;strokeColor=#1069B4;" vertex="1" parent="1">
          <mxGeometry x="240" y="1800" width="30" height="30" as="geometry" />
        </mxCell>
        <mxCell id="56w3MjeFzbU22NMbsZlD-35" value="&lt;b&gt;JO&lt;/b&gt;&lt;div&gt;&lt;b&gt;14&lt;/b&gt;&lt;/div&gt;" style="rounded=1;whiteSpace=wrap;html=1;strokeWidth=2;strokeColor=#1069B4;" vertex="1" parent="1">
          <mxGeometry x="240" y="1760" width="30" height="30" as="geometry" />
        </mxCell>
        <mxCell id="56w3MjeFzbU22NMbsZlD-36" value="&lt;b&gt;JO&lt;/b&gt;&lt;div&gt;&lt;b&gt;15&lt;/b&gt;&lt;/div&gt;" style="rounded=1;whiteSpace=wrap;html=1;strokeWidth=2;strokeColor=#1069B4;" vertex="1" parent="1">
          <mxGeometry x="240" y="1720" width="30" height="30" as="geometry" />
        </mxCell>
        <mxCell id="56w3MjeFzbU22NMbsZlD-37" value="&lt;b&gt;JO&lt;/b&gt;&lt;div&gt;&lt;b&gt;16&lt;/b&gt;&lt;/div&gt;" style="rounded=1;whiteSpace=wrap;html=1;strokeWidth=2;strokeColor=#1069B4;" vertex="1" parent="1">
          <mxGeometry x="240" y="1680" width="30" height="30" as="geometry" />
        </mxCell>
        <mxCell id="56w3MjeFzbU22NMbsZlD-38" value="&lt;b&gt;JO&lt;/b&gt;&lt;div&gt;&lt;b&gt;17&lt;/b&gt;&lt;/div&gt;" style="rounded=1;whiteSpace=wrap;html=1;strokeWidth=2;strokeColor=#1069B4;" vertex="1" parent="1">
          <mxGeometry x="240" y="1640" width="30" height="30" as="geometry" />
        </mxCell>
        <mxCell id="56w3MjeFzbU22NMbsZlD-39" value="&lt;b&gt;JO&lt;/b&gt;&lt;div&gt;&lt;b&gt;18&lt;/b&gt;&lt;/div&gt;" style="rounded=1;whiteSpace=wrap;html=1;strokeWidth=2;strokeColor=#1069B4;" vertex="1" parent="1">
          <mxGeometry x="240" y="1600" width="30" height="30" as="geometry" />
        </mxCell>
        <mxCell id="56w3MjeFzbU22NMbsZlD-40" value="&lt;b&gt;JO&lt;/b&gt;&lt;div&gt;&lt;b&gt;19&lt;/b&gt;&lt;/div&gt;" style="rounded=1;whiteSpace=wrap;html=1;strokeWidth=2;strokeColor=#1069B4;" vertex="1" parent="1">
          <mxGeometry x="240" y="1560" width="30" height="30" as="geometry" />
        </mxCell>
      </root>
    </mxGraphModel>
  </diagram>
</mxfile>
